:version 1.10
:name ASF
:units
  mass 1
  length 1
  angle deg
:documentation
  ASF file generated by Kaydara
:root
  axis xyz
  order  tx ty tz rx ry rz
  position 0 0 0
  orientation 0 0 0
:bonedata
  begin
    id 1
    name RightUpLegDummy
    direction -0.718183 -0.695806 0.00816078
    length 4.904
    axis 0 0 0 xyz
  end
  begin
    id 2
    name RightUpLeg
    direction 3.53373e-006 -0.995788 0.0916898
    length 17.4976
    axis -3.49089 -0.000906625 0.000286804 xyz
    dof rx ry rz
  end
  begin
    id 3
    name RightLeg
    direction 0.00371092 -0.995096 -0.0988419
    length 16.5821
    axis 3.68512 0.0193738 -0.131023 xyz
    dof rx ry rz
  end
  begin
    id 4
    name RightFoot
    direction 0.00079151 -0.46099 0.887405
    length 3.77069
    axis 4.81691e-005 -0.120479 -0.188788 xyz
    dof rx ry rz
  end
  begin
    id 5
    name RightToes
    direction 0.00124746 -0.014064 0.9999
    length 3.85082
    axis 0.000481921 0.542163 -0.142578 xyz
    dof rx ry rz
  end
  begin
    id 6
    name SpineDummy
    direction 8.3039e-015 1 4.57515e-016
    length 4.6813
    axis 0 0 0 xyz
  end
  begin
    id 7
    name Spine
    direction -3.15643e-008 0.999988 0.00495137
    length 10.1015
    axis -0.001389 0.000121418 2.40972e-006 xyz
    dof rx ry rz
  end
  begin
    id 8
    name Spine1
    direction 0 0 0
    length 0
    axis -0.001389 0.000121451 1.30017e-006 xyz
    dof rx ry rz
  end
  begin
    id 9
    name HEadDummy
    direction -1.99912e-008 0.999999 0.00127422
    length 3.43865
    axis -0.001389 0.000121451 1.30017e-006 xyz
  end
  begin
    id 10
    name HEad
    direction -0.0222688 0.980941 0.193023
    length 5.12695
    axis -0.001389 0.000121451 1.30017e-006 xyz
    dof rx ry rz
  end
  begin
    id 11
    name LeftShoulder1Dummy
    direction 0.998891 -0.0402509 -0.0244456
    length 3.5433
    axis -0.001389 0.000121451 1.30017e-006 xyz
  end
  begin
    id 12
    name LeftShoulder1
    direction 0.99951 -0.000327763 0.0313091
    length 4.05031
    axis -0.001389 0.000121451 1.30017e-006 xyz
    dof rx ry rz
  end
  begin
    id 13
    name LeftArm
    direction 0.998561 -0.00100056 -0.0536182
    length 10.3537
    axis -23.1894 0.134784 0.967509 xyz
    dof rx ry rz
  end
  begin
    id 14
    name LeftForeArm
    direction 0.998903 0.00866432 0.046012
    length 8.70632
    axis -9.91835 -0.06569 -0.177794 xyz
    dof rx ry rz
  end
  begin
    id 15
    name LeftHand
    direction 0.992938 -0.0411637 0.11126
    length 5.32135
    axis -0.00960232 -0.00340091 0.185173 xyz
    dof rx ry rz
  end
  begin
    id 16
    name RightShoulderDummy
    direction -0.998891 -0.0402509 -0.0244414
    length 3.5433
    axis -0.001389 0.000121451 1.30017e-006 xyz
  end
  begin
    id 17
    name RightShoulder
    direction -0.99951 -0.000327807 0.0313133
    length 4.05031
    axis 0.215806 0.000203643 -0.0068026 xyz
    dof rx ry rz
  end
  begin
    id 18
    name RightArm
    direction -0.998573 -0.000999564 -0.053403
    length 10.3947
    axis -23.2009 -0.134239 -0.964101 xyz
    dof rx ry rz
  end
  begin
    id 19
    name RightForeArm
    direction -0.998898 0.00868028 0.0461306
    length 8.68355
    axis -9.92322 0.0658061 0.178868 xyz
    dof rx ry rz
  end
  begin
    id 20
    name RightHand
    direction -0.992843 -0.0414603 0.112003
    length 5.28593
    axis -0.00960638 0.00330671 -0.185228 xyz
    dof rx ry rz
  end
  begin
    id 21
    name LeftUpLegDummy
    direction 0.718183 -0.695806 0.00816078
    length 4.904
    axis 0 0 0 xyz
  end
  begin
    id 22
    name LeftUpLeg
    direction -6.81752e-006 -0.995793 0.0916337
    length 17.4976
    axis -3.48766 0.00143442 -0.000524262 xyz
    dof rx ry rz
  end
  begin
    id 23
    name LeftLeg
    direction -0.00601358 -0.995091 -0.0987824
    length 16.5821
    axis 3.68178 -0.00654042 -0.000285133 xyz
    dof rx ry rz
  end
  begin
    id 24
    name LeftFoot
    direction -0.00417578 -0.460984 0.887399
    length 3.77069
    axis 1.87233e-006 4.66016e-005 -8.6538e-006 xyz
    dof rx ry rz
  end
  begin
    id 25
    name LeftToes
    direction 0.00818058 -0.00485161 0.999955
    length 3.85048
    axis 1.06247e-005 4.65869e-005 -8.65513e-006 xyz
    dof rx ry rz
  end
:hierarchy
  begin
    root RightUpLegDummy SpineDummy LeftUpLegDummy
    RightUpLegDummy RightUpLeg
    RightUpLeg RightLeg
    RightLeg RightFoot
    RightFoot RightToes
    SpineDummy Spine
    Spine Spine1
    Spine1 HEadDummy LeftShoulder1Dummy RightShoulderDummy
    HEadDummy HEad
    LeftShoulder1Dummy LeftShoulder1
    LeftShoulder1 LeftArm
    LeftArm LeftForeArm
    LeftForeArm LeftHand
    RightShoulderDummy RightShoulder
    RightShoulder RightArm
    RightArm RightForeArm
    RightForeArm RightHand
    LeftUpLegDummy LeftUpLeg
    LeftUpLeg LeftLeg
    LeftLeg LeftFoot
    LeftFoot LeftToes
  end

:SAMPLES-PER-SECOND 30
:FRAME-RANGE 1-1770
:FULLY-SPECIFIED
:DEGREES
1
root  -63.549 40.251 -77.8856 0.0178932 40.9043 0.465945
RightUpLeg  4.66218 -5.71456 -3.62728
RightLeg  -1.43198 -7.66274 0.713984
RightFoot  -2.99033 -0.398932 5.18103
RightToes  6.35937e-011 1.2921e-014 -6.02303e-014
Spine  -0.486 -0.221433 1.5947
Spine1  2.21542 -0.0492565 -0.850003
HEad  3.38533 1.43381 -6.14326
LeftShoulder1  1.60572 -0.468856 -34.2967
LeftArm  24.1764 1.10767 -33.7877
LeftForeArm  1.23171 -8.47657 -16.7627
LeftHand  0.390201 -2.86599 -5.29738
RightShoulder  8.00065 9.94869 52.06
RightArm  20.2054 1.68244 15.0007
RightForeArm  15.1571 2.12792 17.6605
RightHand  0.605601 5.61228 6.1884
LeftUpLeg  3.26978 8.84336 6.09117
LeftLeg  -2.57017 11.1288 -1.92006
LeftFoot  1.80654 0.796461 -7.03801
LeftToes  3.18074e-010 1.39432e-010 -7.71186e-011
2
root  -63.5609 40.251 -77.9012 -0.0042881 40.9725 0.465945
RightUpLeg  4.70101 -5.67866 -3.59808
RightLeg  -1.52737 -7.78099 0.692991
RightFoot  -2.82913 -0.383795 4.94587
RightToes  6.35937e-011 1.2921e-014 -6.02303e-014
Spine  -0.389584 -0.213214 1.63118
Spine1  2.09166 -0.0361778 -0.860399
HEad  3.47044 1.43381 -6.12109
LeftShoulder1  1.60572 -0.475205 -34.2739
LeftArm  24.2428 1.1229 -33.7823
LeftForeArm  1.20221 -8.47597 -16.7628
LeftHand  0.390766 -2.87978 -5.33493
RightShoulder  7.97805 9.92208 52.0172
RightArm  20.8154 1.62639 14.9814
RightForeArm  14.6598 2.39579 17.6576
RightHand  0.605248 5.58181 6.15242
LeftUpLeg  3.22807 8.84306 6.09115
LeftLeg  -2.52724 11.0984 -1.9213
LeftFoot  1.79198 0.798289 -7.06663
LeftToes  3.18074e-010 1.39432e-010 -7.71186e-011
3
root  -63.5746 40.251 -77.9181 -0.0211002 41.0412 0.472309
RightUpLeg  4.69366 -5.67101 -3.61066
RightLeg  -1.48609 -7.81923 0.682046
RightFoot  -2.96192 -0.399663 5.19238
RightToes  6.35937e-011 1.2921e-014 -6.02303e-014
Spine  -0.325505 -0.202409 1.63727
Spine1  2.03104 -0.0264318 -0.855033
HEad  3.53359 1.43303 -6.12344
LeftShoulder1  1.60572 -0.487739 -34.2925
LeftArm  24.4434 1.1303 -33.7658
LeftForeArm  1.01081 -8.5669 -16.7422
LeftHand  0.390597 -2.82617 -5.30738
RightShoulder  7.95587 9.90587 51.9375
RightArm  21.3406 1.56916 15.0124
RightForeArm  14.0903 2.64907 17.6558
RightHand  0.605385 5.50819 6.11251
LeftUpLeg  3.17103 8.85246 6.09102
LeftLeg  -2.45457 11.0203 -1.91962
LeftFoot  1.77018 0.799762 -7.08969
LeftToes  3.18074e-010 1.39432e-010 -7.71186e-011
4
root  -63.5893 40.2482 -77.9338 -0.0189692 41.0868 0.501943
RightUpLeg  4.65726 -5.74697 -3.67049
RightLeg  -1.41951 -7.76177 0.73367
RightFoot  -3.01691 -0.406468 5.29811
RightToes  6.35937e-011 1.2921e-014 -6.02303e-014
Spine  -0.249394 -0.188122 1.62114
Spine1  1.95181 -0.0131519 -0.845724
HEad  3.61989 1.3745 -6.09361
LeftShoulder1  1.60572 -0.488871 -34.2915
LeftArm  24.4352 1.11807 -33.7688
LeftForeArm  1.1486 -8.5158 -16.7538
LeftHand  0.389232 -2.88942 -5.2485
RightShoulder  7.94938 9.89993 51.9187
RightArm  21.1382 1.57525 14.9891
RightForeArm  14.3389 2.52138 17.666
RightHand  0.61031 5.55947 6.13274
LeftUpLeg  3.1175 8.85349 6.06888
LeftLeg  -2.39615 11.0001 -1.92271
LeftFoot  1.76324 0.798314 -7.06703
LeftToes  3.18074e-010 1.39432e-010 -7.71186e-011
5
root  -63.6057 40.2451 -77.9487 -0.0110035 41.1371 0.532651
RightUpLeg  4.53852 -5.7765 -3.69413
RightLeg  -1.20753 -7.79265 0.715217
RightFoot  -3.08348 -0.395287 5.14425
RightToes  6.35937e-011 1.2921e-014 -6.02303e-014
Spine  -0.153414 -0.189747 1.62762
Spine1  1.85727 -0.00816262 -0.86845
HEad  3.63077 1.46121 -6.11943
LeftShoulder1  1.60572 -0.480387 -34.2395
LeftArm  24.5794 1.15081 -33.8128
LeftForeArm  0.955087 -8.58717 -16.7376
LeftHand  0.389791 -2.82545 -5.25985
RightShoulder  7.94685 9.89892 51.9064
RightArm  21.3959 1.53512 14.9881
RightForeArm  14.073 2.62476 17.669
RightHand  0.608666 5.53919 6.13665
LeftUpLeg  3.07533 8.86553 6.06929
LeftLeg  -2.36687 10.905 -1.95144
LeftFoot  1.79022 0.795001 -7.01515
LeftToes  3.18074e-010 1.39432e-010 -7.71186e-011
